<?xml version="1.0" standalone="no"?>
<!DOCTYPE svg PUBLIC "-//W3C//DTD SVG 20010904//EN"
 "http://www.w3.org/TR/2001/REC-SVG-20010904/DTD/svg10.dtd">
<svg version="1.0" xmlns="http://www.w3.org/2000/svg"
 width="512.000000pt" height="512.000000pt" viewBox="0 0 512.000000 512.000000"
 preserveAspectRatio="xMidYMid meet">

<g transform="translate(0.000000,512.000000) scale(0.100000,-0.100000)"
fill="#000000" stroke="none">
<path d="M483 4875 c-119 -59 -165 -204 -104 -323 24 -47 82 -97 128 -113 l33
-11 0 -420 0 -420 -50 -45 c-66 -59 -104 -115 -129 -191 -18 -53 -21 -86 -21
-245 0 -210 13 -280 56 -299 21 -10 28 -8 46 10 20 20 21 25 10 72 -7 29 -12
126 -12 220 0 146 3 177 21 224 35 95 127 179 222 201 l27 7 0 -440 0 -441
-44 13 c-44 13 -121 61 -145 90 -16 19 -52 21 -69 4 -7 -7 -12 -24 -12 -39 0
-47 105 -123 211 -153 l56 -17 6 -157 c7 -189 27 -274 93 -402 95 -184 288
-343 475 -391 46 -12 49 -15 49 -45 0 -31 0 -31 -61 -37 -39 -3 -84 -16 -121
-35 l-60 -29 -138 80 c-137 79 -139 81 -150 125 -26 104 -94 191 -187 238 -52
26 -68 29 -153 29 -85 0 -101 -3 -153 -29 -70 -36 -130 -99 -165 -174 -36 -76
-38 -201 -4 -275 78 -172 263 -254 439 -193 l38 13 174 -101 c96 -56 179 -110
185 -121 83 -156 213 -237 357 -221 l58 6 33 -63 c48 -92 182 -222 278 -269
105 -51 176 -68 318 -75 l123 -6 62 -61 c157 -154 392 -190 587 -91 28 14 80
54 117 89 l68 63 125 6 c187 8 312 54 445 162 51 42 128 140 157 200 l20 40
86 0 c78 0 94 3 152 32 76 37 118 77 159 152 28 52 36 58 206 157 l177 102 40
-14 c69 -24 130 -27 198 -10 114 29 194 97 242 203 34 74 32 199 -4 275 -35
75 -95 138 -165 174 -52 26 -68 29 -153 29 -85 0 -101 -3 -153 -29 -92 -47
-160 -133 -187 -237 -11 -43 -14 -45 -153 -125 l-141 -81 -59 30 c-40 20 -80
31 -123 35 l-65 5 3 30 c3 28 8 32 58 47 204 61 390 221 481 415 59 126 70
181 76 365 6 170 8 180 49 180 43 0 160 69 213 125 93 98 121 193 121 410 0
224 -34 323 -145 430 l-65 62 0 411 0 412 47 24 c95 48 143 123 143 221 0 97
-47 171 -135 211 -122 57 -270 0 -322 -123 -18 -43 -17 -135 2 -181 21 -48 77
-105 126 -127 l39 -18 0 -400 c0 -360 -2 -399 -16 -393 -9 3 -24 6 -34 6 -16
0 -18 15 -22 173 -5 158 -8 180 -36 265 -76 232 -249 415 -472 498 -47 18
-119 37 -160 44 -55 8 -387 10 -1220 8 -1288 -4 -1179 3 -1355 -83 -159 -77
-279 -196 -356 -350 -60 -122 -80 -213 -86 -397 -4 -106 -10 -158 -17 -158 -6
0 -21 -3 -33 -6 l-23 -6 0 400 0 400 37 13 c57 19 119 88 139 154 58 200 -148
372 -333 280z m167 -90 c69 -36 94 -106 62 -178 -33 -74 -116 -101 -190 -63
-41 21 -63 56 -69 109 -10 101 106 179 197 132z m3935 1 c51 -22 77 -69 72
-134 -3 -41 -10 -59 -32 -82 -56 -59 -144 -59 -200 0 -39 40 -46 119 -15 168
35 56 107 76 175 48z m-800 -277 c46 -14 51 -19 63 -60 8 -24 17 -116 21 -207
6 -172 9 -182 57 -182 43 0 47 19 42 200 -2 94 -2 170 0 170 2 0 26 -16 53
-36 81 -59 157 -152 205 -249 77 -156 75 -128 72 -1073 l-3 -837 -27 -80 c-78
-231 -255 -397 -486 -456 -71 -18 -118 -19 -928 -19 -510 0 -863 -4 -877 -9
-30 -12 -42 -43 -27 -71 11 -20 16 -20 870 -20 l860 0 0 -125 0 -125 -187 0
-188 0 -172 -172 -173 -173 0 -227 0 -228 -405 0 -405 0 0 233 0 233 -168 167
-168 167 -192 0 -192 0 0 125 0 125 95 0 c85 0 95 2 105 20 15 28 3 59 -27 71
-13 5 -63 9 -111 9 -112 0 -196 20 -302 72 -121 60 -240 178 -298 298 -80 163
-76 110 -80 995 -3 825 0 900 39 1020 44 132 150 268 269 348 73 49 81 48 66
-5 -8 -31 -11 -294 -11 -923 0 -879 0 -880 22 -968 82 -320 317 -560 638 -649
78 -22 96 -22 685 -26 407 -2 633 0 690 8 342 45 628 292 732 632 22 71 22 86
26 646 2 427 0 577 -9 588 -17 21 -66 18 -79 -5 -6 -13 -10 -205 -10 -553 0
-572 -3 -602 -53 -728 -41 -100 -88 -170 -172 -256 -123 -125 -269 -199 -441
-224 -111 -16 -1192 -12 -1284 4 -169 31 -284 91 -411 216 -140 138 -208 280
-230 477 -7 64 -9 375 -6 908 4 987 -1 945 113 965 27 4 567 7 1199 6 997 -1
1157 -4 1200 -17z m702 -993 c60 -28 124 -89 152 -144 32 -62 44 -160 39 -316
-4 -128 -7 -147 -33 -203 -40 -91 -115 -156 -207 -181 l-38 -10 0 439 c0 498
-8 459 87 415z m-3916 -1703 c232 -118 150 -466 -111 -467 -53 0 -75 5 -118
29 -89 48 -139 142 -129 240 18 177 200 277 358 198z m4200 0 c233 -119 151
-467 -111 -467 -207 0 -322 231 -197 396 44 59 123 98 197 98 42 0 71 -7 111
-27z m-3854 -366 l102 -58 -19 -32 c-11 -18 -26 -59 -34 -91 -9 -32 -17 -60
-19 -62 -1 -2 -52 26 -112 61 -61 36 -114 66 -119 68 -5 2 7 26 27 55 19 29
41 68 47 88 7 19 15 34 19 32 3 -2 52 -29 108 -61z m3413 28 c6 -19 27 -57 46
-85 l34 -49 -73 -42 c-39 -23 -93 -55 -120 -70 -26 -16 -49 -29 -51 -29 -2 0
-6 18 -10 39 -5 32 -28 93 -54 143 -3 6 195 128 210 128 3 0 12 -16 18 -35z
m-2996 -262 c3 -120 7 -231 9 -248 l2 -30 -55 1 c-130 2 -233 109 -234 244 -1
54 4 74 29 119 45 81 121 130 206 131 l36 0 7 -217z m2581 193 c214 -99 181
-415 -48 -466 -75 -17 -103 -11 -99 20 2 14 6 125 9 248 l5 222 41 0 c23 0 65
-11 92 -24z m-2003 -313 l138 -138 0 -212 0 -213 -42 0 c-142 1 -298 68 -403
174 -117 117 -160 224 -172 419 l-6 107 174 0 174 0 137 -137z m1766 20 c-6
-140 -29 -221 -88 -312 -102 -158 -259 -251 -449 -267 l-81 -7 0 209 0 209
142 142 143 143 169 0 168 0 -4 -117z m-848 -688 c0 -12 -95 -66 -151 -85
-120 -41 -280 -12 -379 69 l-25 21 278 0 c152 0 277 -2 277 -5z"/>
<path d="M3890 3990 c-16 -16 -20 -33 -20 -93 0 -74 9 -99 41 -110 9 -3 26 1
38 9 19 13 21 25 21 99 0 75 -2 85 -22 99 -29 20 -34 20 -58 -4z"/>
<path d="M1588 3664 c-18 -38 -4 -53 107 -110 l99 -52 -102 -51 c-80 -40 -103
-56 -108 -76 -6 -26 17 -65 40 -65 6 -1 71 30 144 67 l132 68 133 -68 c72 -37
137 -68 143 -67 23 0 46 39 40 65 -5 20 -28 36 -108 76 l-103 51 96 48 c112
57 126 70 113 108 -16 44 -45 39 -185 -33 l-129 -66 -127 65 c-71 37 -138 66
-151 66 -14 0 -27 -9 -34 -26z"/>
<path d="M2908 3664 c-18 -38 -4 -53 107 -110 l99 -52 -102 -51 c-80 -40 -103
-56 -108 -76 -6 -26 17 -65 40 -65 6 -1 71 30 144 67 l132 68 133 -68 c72 -37
137 -68 143 -67 23 0 46 39 40 65 -5 20 -28 36 -108 76 l-103 51 96 48 c112
57 126 70 113 108 -16 44 -45 39 -185 -33 l-129 -66 -127 65 c-71 37 -138 66
-151 66 -14 0 -27 -9 -34 -26z"/>
<path d="M1816 2945 c-50 -18 -92 -59 -111 -110 -13 -33 -16 -76 -13 -221 3
-177 4 -181 30 -221 16 -24 44 -49 70 -62 44 -21 51 -21 768 -21 717 0 724 0
768 21 26 13 54 38 70 62 26 40 27 44 30 221 3 147 0 187 -13 222 -20 52 -71
99 -122 113 -25 7 -279 11 -738 11 -568 -1 -707 -3 -739 -15z m1490 -118 c23
-27 24 -33 24 -188 0 -161 -5 -190 -39 -216 -23 -18 -1439 -18 -1462 0 -34 26
-39 55 -39 214 0 170 6 194 54 213 11 5 340 8 729 7 l709 -2 24 -28z"/>
<path d="M1712 1664 c-24 -17 -29 -53 -10 -72 7 -7 42 -12 88 -12 81 0 100 9
100 46 0 34 -37 54 -100 54 -34 0 -64 -6 -78 -16z"/>
<path d="M2469 1397 c-100 -28 -184 -99 -231 -196 -19 -38 -23 -63 -23 -141 0
-114 18 -163 91 -240 188 -201 521 -112 590 158 30 122 -8 245 -106 335 -87
80 -215 114 -321 84z m198 -115 c91 -47 153 -162 138 -255 -28 -168 -200 -263
-351 -193 -128 59 -181 209 -118 334 61 123 211 175 331 114z"/>
</g>
</svg>
