<?xml version="1.0" standalone="no"?>
<!DOCTYPE svg PUBLIC "-//W3C//DTD SVG 20010904//EN"
 "http://www.w3.org/TR/2001/REC-SVG-20010904/DTD/svg10.dtd">
<svg version="1.0" xmlns="http://www.w3.org/2000/svg"
 width="512.000000pt" height="512.000000pt" viewBox="0 0 512.000000 512.000000"
 preserveAspectRatio="xMidYMid meet">

<g transform="translate(0.000000,512.000000) scale(0.100000,-0.100000)"
fill="#000000" stroke="none">
<path d="M507 4886 c-98 -37 -152 -117 -152 -226 1 -103 62 -191 152 -221 l33
-11 0 -418 0 -418 -73 -73 c-115 -115 -122 -139 -122 -414 0 -232 7 -274 47
-296 15 -8 26 -6 45 6 21 14 24 22 18 48 -4 18 -9 118 -12 222 -4 179 -3 194
18 250 36 96 125 177 222 200 l27 7 0 -440 0 -441 -29 9 c-50 14 -97 40 -139
76 -42 35 -70 42 -90 22 -24 -24 -13 -60 28 -100 48 -45 95 -70 171 -92 l56
-17 6 -157 c7 -189 27 -274 93 -402 95 -184 288 -343 475 -391 46 -12 49 -15
49 -45 0 -31 0 -31 -61 -37 -39 -3 -84 -16 -121 -35 l-60 -30 -138 81 c-136
79 -139 81 -150 125 -27 108 -102 201 -198 245 -37 17 -66 21 -142 22 -84 0
-102 -3 -151 -28 -108 -52 -187 -170 -196 -291 -20 -246 227 -434 464 -352
l38 13 174 -101 c96 -56 179 -110 185 -121 37 -71 84 -128 129 -159 65 -45
162 -70 234 -62 l52 6 32 -61 c45 -85 157 -201 238 -248 113 -66 251 -101 402
-101 l77 0 64 -62 c129 -127 309 -177 481 -132 90 23 149 57 224 128 l68 63
120 6 c187 9 319 55 437 151 60 49 138 146 170 211 l20 40 86 0 c78 0 94 3
152 32 76 37 118 77 158 152 29 51 37 57 207 156 l177 103 41 -14 c109 -39
217 -24 316 44 65 44 123 128 141 203 37 152 -46 326 -189 396 -49 25 -67 28
-151 28 -85 0 -101 -3 -150 -28 -99 -51 -163 -131 -190 -238 -11 -43 -14 -45
-153 -125 l-141 -81 -59 30 c-40 20 -80 31 -123 35 l-65 5 3 30 c3 28 8 32 58
47 204 61 390 221 481 415 59 126 70 181 76 365 6 170 8 180 49 180 43 0 160
69 213 125 93 98 121 193 121 410 0 224 -34 323 -145 430 l-65 62 2 414 3 414
42 20 c117 55 169 171 132 296 -39 128 -197 194 -324 135 -89 -41 -135 -115
-135 -213 1 -98 53 -179 141 -218 l39 -18 0 -400 c0 -360 -2 -399 -16 -393 -9
3 -24 6 -34 6 -16 0 -18 15 -22 173 -5 158 -8 180 -36 265 -76 232 -249 415
-472 498 -47 18 -119 37 -160 44 -54 8 -388 10 -1220 8 l-1145 -3 -75 -23
c-218 -67 -395 -214 -491 -407 -60 -122 -80 -213 -86 -397 -4 -106 -10 -158
-17 -158 -6 0 -21 -3 -33 -6 l-23 -6 0 399 0 399 50 23 c177 80 180 338 6 428
-42 22 -142 27 -189 9z m143 -101 c69 -36 94 -106 62 -178 -64 -145 -287 -77
-258 78 8 39 49 93 80 105 33 14 84 11 116 -5z m3935 1 c51 -22 77 -69 72
-134 -3 -41 -10 -59 -32 -82 -59 -61 -148 -59 -204 5 -25 29 -31 44 -31 83 0
108 94 170 195 128z m-805 -277 c52 -14 55 -16 68 -59 8 -26 16 -109 19 -200
6 -166 13 -190 58 -190 44 0 48 18 43 200 -2 94 -2 170 0 170 2 0 26 -16 53
-36 81 -59 157 -152 205 -249 77 -156 75 -128 72 -1073 l-3 -837 -27 -80 c-78
-231 -255 -397 -486 -456 -71 -18 -118 -19 -928 -19 -510 0 -863 -4 -877 -9
-30 -12 -42 -43 -27 -71 11 -20 16 -20 870 -20 l860 0 0 -125 0 -125 -187 0
-188 0 -172 -172 -173 -173 0 -227 0 -228 -405 0 -405 0 0 233 0 233 -168 167
-168 167 -192 0 -192 0 0 125 0 125 95 0 c83 0 96 2 105 19 13 25 13 33 -3 55
-11 15 -32 19 -118 22 -131 6 -212 25 -316 76 -179 87 -318 264 -360 459 -17
77 -18 150 -18 904 0 752 1 826 18 889 44 173 146 315 302 419 57 39 65 36 51
-15 -8 -31 -11 -294 -11 -923 0 -879 0 -880 22 -968 82 -320 317 -560 638
-649 78 -22 96 -22 685 -26 407 -2 633 0 690 8 342 45 628 292 732 632 22 71
22 86 26 646 2 427 0 577 -9 588 -17 21 -66 18 -79 -5 -6 -13 -10 -205 -10
-553 0 -572 -3 -602 -53 -728 -41 -100 -88 -170 -172 -256 -123 -125 -269
-199 -441 -224 -111 -16 -1192 -12 -1284 4 -169 31 -284 91 -411 216 -140 138
-208 280 -230 477 -7 64 -9 375 -6 908 3 727 5 817 21 875 9 36 21 69 25 73
21 21 221 25 1276 23 955 -2 1138 -4 1185 -17z m692 -989 c147 -55 208 -175
208 -410 0 -193 -29 -291 -109 -363 -45 -41 -80 -60 -133 -75 l-38 -10 0 439
c0 275 4 439 10 439 5 0 33 -9 62 -20z m-3906 -1704 c110 -51 168 -180 132
-298 -15 -50 -79 -123 -132 -150 -57 -30 -156 -30 -211 -1 -86 46 -145 138
-145 228 0 177 193 297 356 221z m4209 -4 c174 -89 178 -343 8 -434 -67 -36
-121 -43 -186 -24 -143 41 -214 169 -173 309 20 70 65 123 131 154 62 30 157
28 220 -5z m-3858 -365 l102 -58 -19 -32 c-11 -18 -26 -59 -34 -91 -9 -32 -17
-60 -19 -62 -1 -2 -52 26 -112 61 -61 36 -114 66 -119 68 -5 2 7 26 27 55 19
29 41 68 47 88 7 19 15 34 19 32 3 -2 52 -29 108 -61z m3413 28 c6 -19 27 -57
46 -85 l34 -49 -73 -42 c-39 -23 -93 -55 -120 -70 -26 -16 -49 -29 -51 -29 -2
0 -6 18 -10 39 -5 32 -28 93 -54 143 -3 6 195 128 210 128 3 0 12 -16 18 -35z
m-2997 -262 c4 -120 10 -230 13 -245 5 -23 2 -28 -19 -33 -41 -11 -131 13
-175 46 -121 89 -128 295 -14 389 40 33 107 58 158 59 l31 1 6 -217z m2582
193 c214 -99 181 -415 -48 -466 -70 -16 -103 -11 -99 15 2 11 6 122 9 248 l5
227 42 0 c22 0 64 -11 91 -24z m-2003 -313 l138 -138 0 -212 0 -213 -42 0
c-142 1 -298 68 -403 174 -117 117 -160 224 -172 419 l-6 107 174 0 174 0 137
-137z m1768 45 c-1 -335 -218 -577 -542 -604 l-78 -7 0 209 0 209 142 142 143
143 167 0 168 0 0 -92z m-850 -713 c0 -12 -95 -66 -151 -85 -120 -41 -280 -12
-379 69 l-25 21 278 0 c152 0 277 -2 277 -5z"/>
<path d="M3910 4003 c-8 -3 -21 -12 -27 -21 -15 -18 -17 -129 -4 -165 12 -31
45 -40 71 -19 19 15 21 26 18 101 -3 71 -6 86 -23 96 -11 7 -27 10 -35 8z"/>
<path d="M1946 3877 c-62 -65 -123 -106 -198 -136 -68 -27 -82 -42 -74 -76 14
-55 107 -37 231 47 143 95 193 190 113 211 -17 5 -33 -6 -72 -46z"/>
<path d="M3072 3908 c-18 -18 -15 -39 13 -80 52 -76 244 -198 313 -198 55 0
70 66 21 91 -8 4 -48 23 -90 42 -57 26 -92 50 -135 96 -60 62 -95 76 -122 49z"/>
<path d="M1940 3620 c-72 -13 -136 -66 -155 -128 -20 -65 -1 -155 44 -206 64
-73 205 -77 285 -7 71 63 75 207 7 285 -37 42 -118 67 -181 56z m113 -131 c10
-13 17 -38 17 -64 0 -50 -22 -82 -65 -93 -69 -19 -127 23 -127 93 0 20 7 46
16 60 31 47 121 49 159 4z"/>
<path d="M3110 3620 c-101 -18 -160 -90 -160 -195 0 -84 33 -141 105 -177 104
-53 247 4 280 110 20 65 1 155 -44 206 -37 42 -118 67 -181 56z m113 -131 c25
-31 26 -88 1 -126 -29 -45 -120 -46 -156 -2 -23 28 -23 97 0 127 35 45 118 45
155 1z"/>
<path d="M2477 2910 c-160 -41 -292 -194 -305 -355 -8 -109 17 -119 123 -49
147 96 242 121 351 89 65 -18 149 -62 207 -107 142 -112 122 168 -23 312 -91
92 -240 138 -353 110z m160 -105 c66 -20 122 -62 161 -120 18 -27 31 -50 29
-51 -1 -2 -27 8 -56 23 -30 14 -89 32 -133 41 -70 14 -86 14 -155 0 -43 -9
-102 -27 -132 -42 -30 -14 -56 -24 -58 -23 -7 8 62 100 94 124 40 31 125 62
169 63 17 0 53 -7 81 -15z"/>
<path d="M1712 1664 c-24 -17 -29 -53 -10 -72 18 -18 162 -16 178 2 18 22 8
59 -20 73 -35 18 -121 16 -148 -3z"/>
<path d="M2474 1396 c-103 -25 -195 -101 -236 -194 -11 -26 -23 -79 -25 -118
-9 -128 42 -241 140 -307 219 -149 512 -27 546 228 25 184 -79 344 -254 390
-69 18 -101 18 -171 1z m155 -102 c147 -43 216 -207 147 -348 -31 -64 -72 -99
-141 -122 -121 -42 -268 27 -310 145 -48 136 23 285 155 326 59 18 86 18 149
-1z"/>
</g>
</svg>
